<mxfile host="app.diagrams.net" modified="2023-11-17T03:52:25.638Z" agent="Mozilla/5.0 (Windows NT 10.0; Win64; x64) AppleWebKit/537.36 (KHTML, like Gecko) Chrome/119.0.0.0 Safari/537.36" etag="F0do49KzITqkIpFGx2hC" version="22.1.2" type="google">
  <diagram name="Page-1" id="52a04d89-c75d-2922-d76d-85b35f80e030">
    <mxGraphModel grid="1" page="1" gridSize="10" guides="1" tooltips="1" connect="1" arrows="1" fold="1" pageScale="1" pageWidth="1100" pageHeight="850" background="none" math="0" shadow="0">
      <root>
        <mxCell id="0" />
        <mxCell id="1" parent="0" />
        <mxCell id="33M44y3_6pvl_umdWdAC-13" value="input image" style="rhombus;strokeWidth=2;whiteSpace=wrap;" vertex="1" parent="1">
          <mxGeometry x="40" y="1043" width="120" height="117" as="geometry" />
        </mxCell>
        <mxCell id="33M44y3_6pvl_umdWdAC-14" value="detection_preprocessing" style="ellipse;aspect=fixed;strokeWidth=2;whiteSpace=wrap;" vertex="1" parent="1">
          <mxGeometry x="180" y="1030" width="140" height="140" as="geometry" />
        </mxCell>
        <mxCell id="33M44y3_6pvl_umdWdAC-15" value="preprocessed_image" style="rounded=1;absoluteArcSize=1;arcSize=14;whiteSpace=wrap;strokeWidth=2;" vertex="1" parent="1">
          <mxGeometry x="340" y="1080" width="120" height="40" as="geometry" />
        </mxCell>
        <mxCell id="33M44y3_6pvl_umdWdAC-16" value="text_detection" style="ellipse;aspect=fixed;strokeWidth=2;whiteSpace=wrap;" vertex="1" parent="1">
          <mxGeometry x="480" y="1063" width="78.5" height="78.5" as="geometry" />
        </mxCell>
        <mxCell id="33M44y3_6pvl_umdWdAC-17" value="Sigmoid:0" style="rounded=1;absoluteArcSize=1;arcSize=14;whiteSpace=wrap;strokeWidth=2;" vertex="1" parent="1">
          <mxGeometry x="580" y="1052.25" width="70" height="29.25" as="geometry" />
        </mxCell>
        <mxCell id="33M44y3_6pvl_umdWdAC-18" value="concat_3:0" style="rounded=1;absoluteArcSize=1;arcSize=14;whiteSpace=wrap;strokeWidth=2;" vertex="1" parent="1">
          <mxGeometry x="580" y="1100" width="70" height="30" as="geometry" />
        </mxCell>
        <mxCell id="33M44y3_6pvl_umdWdAC-19" value="detection_postprocessing" style="ellipse;aspect=fixed;strokeWidth=2;whiteSpace=wrap;" vertex="1" parent="1">
          <mxGeometry x="670" y="1032.25" width="140" height="140" as="geometry" />
        </mxCell>
        <mxCell id="33M44y3_6pvl_umdWdAC-20" value="cropped_images" style="rounded=1;absoluteArcSize=1;arcSize=14;whiteSpace=wrap;strokeWidth=2;" vertex="1" parent="1">
          <mxGeometry x="830" y="1081.5" width="100" height="40" as="geometry" />
        </mxCell>
        <mxCell id="33M44y3_6pvl_umdWdAC-21" value="text_recognition" style="ellipse;aspect=fixed;strokeWidth=2;whiteSpace=wrap;" vertex="1" parent="1">
          <mxGeometry x="950" y="1052.25" width="97" height="97" as="geometry" />
        </mxCell>
        <mxCell id="33M44y3_6pvl_umdWdAC-22" value="recognition_output" style="rounded=1;absoluteArcSize=1;arcSize=14;whiteSpace=wrap;strokeWidth=2;" vertex="1" parent="1">
          <mxGeometry x="1070" y="1081.5" width="110" height="40" as="geometry" />
        </mxCell>
        <mxCell id="33M44y3_6pvl_umdWdAC-23" value="recognition_postprocessing" style="ellipse;aspect=fixed;strokeWidth=2;whiteSpace=wrap;" vertex="1" parent="1">
          <mxGeometry x="1200" y="1024.75" width="153.5" height="153.5" as="geometry" />
        </mxCell>
        <mxCell id="33M44y3_6pvl_umdWdAC-24" value="recognized_text" style="rhombus;strokeWidth=2;whiteSpace=wrap;" vertex="1" parent="1">
          <mxGeometry x="1380" y="1040.37" width="120" height="122.25" as="geometry" />
        </mxCell>
        <mxCell id="33M44y3_6pvl_umdWdAC-25" value="" style="curved=1;startArrow=none;endArrow=block;entryX=0.002;entryY=0.513;rounded=0;exitX=1;exitY=0.5;exitDx=0;exitDy=0;entryDx=0;entryDy=0;entryPerimeter=0;" edge="1" parent="1" source="33M44y3_6pvl_umdWdAC-13" target="33M44y3_6pvl_umdWdAC-14">
          <mxGeometry relative="1" as="geometry">
            <Array as="points" />
            <mxPoint x="170" y="1111" as="sourcePoint" />
          </mxGeometry>
        </mxCell>
        <mxCell id="33M44y3_6pvl_umdWdAC-26" value="" style="curved=1;startArrow=none;endArrow=block;exitX=0.9974441128875573;exitY=0.5012254665035227;entryX=0;entryY=0.5;rounded=0;entryDx=0;entryDy=0;" edge="1" parent="1" source="33M44y3_6pvl_umdWdAC-14" target="33M44y3_6pvl_umdWdAC-15">
          <mxGeometry relative="1" as="geometry">
            <Array as="points" />
          </mxGeometry>
        </mxCell>
        <mxCell id="33M44y3_6pvl_umdWdAC-28" value="" style="curved=1;startArrow=none;endArrow=block;exitX=1;exitY=0;entryX=-0.0038828295330668606;entryY=0.49057579040527344;rounded=0;exitDx=0;exitDy=0;" edge="1" parent="1" source="33M44y3_6pvl_umdWdAC-16" target="33M44y3_6pvl_umdWdAC-17">
          <mxGeometry relative="1" as="geometry">
            <Array as="points">
              <mxPoint x="550" y="1069" />
              <mxPoint x="570" y="1066.5" />
            </Array>
          </mxGeometry>
        </mxCell>
        <mxCell id="33M44y3_6pvl_umdWdAC-33" value="" style="curved=1;startArrow=none;endArrow=block;entryX=0;entryY=0.5;rounded=0;entryDx=0;entryDy=0;" edge="1" parent="1" source="33M44y3_6pvl_umdWdAC-19" target="33M44y3_6pvl_umdWdAC-20">
          <mxGeometry relative="1" as="geometry">
            <Array as="points" />
            <mxPoint x="810" y="1100.5" as="sourcePoint" />
          </mxGeometry>
        </mxCell>
        <mxCell id="33M44y3_6pvl_umdWdAC-34" value="" style="curved=1;startArrow=none;endArrow=block;exitX=1.002016664461325;exitY=0.4932495565975414;entryX=0.0019715152569671174;entryY=0.4982872009277344;rounded=0;" edge="1" parent="1" source="33M44y3_6pvl_umdWdAC-20" target="33M44y3_6pvl_umdWdAC-21">
          <mxGeometry relative="1" as="geometry">
            <Array as="points" />
          </mxGeometry>
        </mxCell>
        <mxCell id="33M44y3_6pvl_umdWdAC-35" value="" style="curved=1;startArrow=none;endArrow=block;exitX=1.0034069801444438;exitY=0.4982872009277344;entryX=0.0029838911068984886;entryY=0.4932495565975414;rounded=0;" edge="1" parent="1" source="33M44y3_6pvl_umdWdAC-21" target="33M44y3_6pvl_umdWdAC-22">
          <mxGeometry relative="1" as="geometry">
            <Array as="points" />
          </mxGeometry>
        </mxCell>
        <mxCell id="33M44y3_6pvl_umdWdAC-36" value="" style="curved=1;startArrow=none;endArrow=block;exitX=1.0030803306429994;exitY=0.4932495565975414;entryX=0.0022442408970424106;entryY=0.49890707106817334;rounded=0;" edge="1" parent="1" source="33M44y3_6pvl_umdWdAC-22" target="33M44y3_6pvl_umdWdAC-23">
          <mxGeometry relative="1" as="geometry">
            <Array as="points" />
          </mxGeometry>
        </mxCell>
        <mxCell id="33M44y3_6pvl_umdWdAC-37" value="" style="curved=1;startArrow=none;endArrow=block;exitX=1.0000583830333891;exitY=0.49890707106817334;entryX=0.00007385805428746235;entryY=0.49861737906214704;rounded=0;" edge="1" parent="1" source="33M44y3_6pvl_umdWdAC-23" target="33M44y3_6pvl_umdWdAC-24">
          <mxGeometry relative="1" as="geometry">
            <Array as="points" />
          </mxGeometry>
        </mxCell>
        <mxCell id="33M44y3_6pvl_umdWdAC-38" value="" style="curved=1;endArrow=classic;html=1;rounded=0;exitX=0.5;exitY=1;exitDx=0;exitDy=0;entryX=0.198;entryY=0.908;entryDx=0;entryDy=0;entryPerimeter=0;" edge="1" parent="1" source="33M44y3_6pvl_umdWdAC-15" target="33M44y3_6pvl_umdWdAC-19">
          <mxGeometry width="50" height="50" relative="1" as="geometry">
            <mxPoint x="440" y="1165.4499999999998" as="sourcePoint" />
            <mxPoint x="660.94" y="1162.62" as="targetPoint" />
            <Array as="points">
              <mxPoint x="450" y="1160" />
              <mxPoint x="590" y="1170" />
            </Array>
          </mxGeometry>
        </mxCell>
        <mxCell id="33M44y3_6pvl_umdWdAC-40" value="" style="curved=1;startArrow=none;endArrow=block;exitX=1;exitY=0.5;entryX=0.014;entryY=0.475;rounded=0;entryDx=0;entryDy=0;exitDx=0;exitDy=0;entryPerimeter=0;" edge="1" parent="1" source="33M44y3_6pvl_umdWdAC-15" target="33M44y3_6pvl_umdWdAC-16">
          <mxGeometry relative="1" as="geometry">
            <Array as="points" />
            <mxPoint x="480" y="1043" as="sourcePoint" />
            <mxPoint x="500" y="1043" as="targetPoint" />
          </mxGeometry>
        </mxCell>
        <mxCell id="33M44y3_6pvl_umdWdAC-41" value="" style="curved=1;startArrow=none;endArrow=block;entryX=0.005;entryY=0.589;rounded=0;entryDx=0;entryDy=0;entryPerimeter=0;exitX=1;exitY=0.5;exitDx=0;exitDy=0;" edge="1" parent="1" source="33M44y3_6pvl_umdWdAC-18" target="33M44y3_6pvl_umdWdAC-19">
          <mxGeometry relative="1" as="geometry">
            <Array as="points" />
            <mxPoint x="590" y="950" as="sourcePoint" />
            <mxPoint x="521" y="1010" as="targetPoint" />
          </mxGeometry>
        </mxCell>
        <mxCell id="33M44y3_6pvl_umdWdAC-42" value="" style="curved=1;startArrow=none;endArrow=block;entryX=0;entryY=0.5;rounded=0;entryDx=0;entryDy=0;exitX=0.985;exitY=0.659;exitDx=0;exitDy=0;exitPerimeter=0;" edge="1" parent="1" source="33M44y3_6pvl_umdWdAC-16" target="33M44y3_6pvl_umdWdAC-18">
          <mxGeometry relative="1" as="geometry">
            <Array as="points" />
            <mxPoint x="550" y="1142" as="sourcePoint" />
            <mxPoint x="575" y="1141" as="targetPoint" />
          </mxGeometry>
        </mxCell>
        <mxCell id="33M44y3_6pvl_umdWdAC-44" value="" style="curved=1;startArrow=none;endArrow=block;entryX=0.064;entryY=0.245;rounded=0;entryDx=0;entryDy=0;entryPerimeter=0;exitX=1;exitY=0.5;exitDx=0;exitDy=0;" edge="1" parent="1" source="33M44y3_6pvl_umdWdAC-17" target="33M44y3_6pvl_umdWdAC-19">
          <mxGeometry relative="1" as="geometry">
            <Array as="points" />
            <mxPoint x="660" y="1067.02" as="sourcePoint" />
            <mxPoint x="681" y="1067.02" as="targetPoint" />
          </mxGeometry>
        </mxCell>
      </root>
    </mxGraphModel>
  </diagram>
</mxfile>
